<?xml version="1.0"?>
<svg xmlns="http://www.w3.org/2000/svg" viewBox="0 0 50 55">
    <path fill="#8CBCD6" d="M 10.300781 3 C 6.2757812 3 3 6.2757812 3 10.300781 L 3 39.699219 C 3 43.724219 6.2757812 47 10.300781 47 L 39.699219 47 C 43.724219 47 47 43.724219 47 39.699219 L 47 10.300781 C 47 6.2757812 43.724219 3 39.699219 3 L 10.300781 3 z M 14 7 L 16.400391 7 L 18.003906 11.507812 L 19.599609 7 L 22 7 L 19 14.486328 L 19 18.75 L 17 18.75 L 17 14.480469 C 16.402 12.867469 14.414 8.013 14 7 z M 25 10.162109 C 25.889 10.162109 26.770031 10.430891 27.332031 11.087891 C 27.758031 11.572891 28 12.343141 28 13.369141 L 28 15.792969 C 28 16.812969 27.804906 17.517047 27.378906 17.998047 C 26.815906 18.652047 25.889 19 25 19 C 24.111 19 23.200672 18.653047 22.638672 17.998047 C 22.205672 17.518047 22 16.812969 22 15.792969 L 22.001953 13.378906 C 22.001953 12.351906 22.234969 11.572891 22.667969 11.087891 C 23.229969 10.430891 23.994 10.162109 25 10.162109 z M 29 10.25 L 31 10.25 L 31 17 C 31.05 17.267 31.336375 17.392578 31.609375 17.392578 C 32.021375 17.392578 32.544 16.914 33 16.375 L 33 10.25 L 35 10.25 L 35 18.875 L 33 18.875 L 33 17.625 C 32.185 18.41 31.500844 19.000703 30.589844 18.970703 C 29.928844 18.949703 29.468281 18.707375 29.238281 18.234375 C 29.098281 17.947375 29 17.497891 29 16.837891 L 29 10.25 z M 25 11.75 C 24.448 11.75 24 12.198 24 12.75 L 24 16.5 C 24 17.052 24.448 17.5 25 17.5 C 25.552 17.5 26 17.052 26 16.5 L 26 12.75 C 26 12.198 25.552 11.75 25 11.75 z M 24.992188 22 L 25.007812 22 C 25.007812 22 31.723172 22.000406 36.201172 22.316406 C 36.826172 22.389406 38.192203 22.394625 39.408203 23.640625 C 40.367203 24.589625 40.679688 26.746094 40.679688 26.746094 C 40.679688 26.746094 41 28.272688 41 30.804688 L 41 33.177734 C 41 35.708734 40.679688 38.240234 40.679688 38.240234 C 40.679688 38.240234 40.367203 40.395703 39.408203 41.345703 C 38.191203 42.591703 36.826172 42.596922 36.201172 42.669922 C 31.723172 42.985922 25 42.996094 25 42.996094 C 25 42.996094 16.679141 42.921641 14.119141 42.681641 C 13.407141 42.551641 11.808797 42.591703 10.591797 41.345703 C 9.6317969 40.395703 9.3203125 38.240234 9.3203125 38.240234 C 9.3203125 38.240234 9 35.708734 9 33.177734 L 9 30.804688 C 9 28.273688 9.3203125 26.746094 9.3203125 26.746094 C 9.3203125 26.746094 9.6317969 24.589625 10.591797 23.640625 C 11.808797 22.394625 13.173828 22.389406 13.798828 22.316406 C 18.276828 22.000406 24.992187 22 24.992188 22 z M 11.5 25.996094 L 11.5 27.996094 L 14 27.996094 L 14 38.996094 L 16 38.996094 L 16 27.996094 L 18.5 27.996094 L 18.5 25.996094 L 11.5 25.996094 z M 25 25.996094 L 25 38.996094 L 27 38.996094 L 27 37.871094 C 27.631 38.652094 28.453 39.121094 29.125 39.121094 C 29.877 39.121094 30.533156 38.716406 30.785156 37.941406 C 30.904156 37.522406 30.992 37.131094 31 36.246094 L 31 32.746094 C 31 31.758094 30.866234 31.01375 30.740234 30.59375 C 30.488234 29.81275 29.878 29.376094 29.125 29.371094 C 28.145 29.364094 27.75 29.871094 27 30.746094 L 27 25.996094 L 25 25.996094 z M 35.029297 29.371094 C 34.021297 29.371094 33.234062 29.714281 32.664062 30.363281 C 32.244062 30.842281 32 31.626625 32 32.640625 L 32 35.960938 C 32 36.968938 32.2685 37.674438 32.6875 38.148438 C 33.2585 38.796438 34.044172 39.119141 35.076172 39.119141 C 36.107172 39.119141 36.918844 38.780797 37.464844 38.091797 C 37.704844 37.787797 37.858781 37.4435 37.925781 37.0625 C 37.943781 36.8905 37.996094 36.498312 37.996094 35.945312 L 38 35.712891 L 36 35.712891 L 36 36.734375 C 36 37.236375 35.552 37.644531 35 37.644531 C 34.448 37.644531 34 37.236375 34 36.734375 L 34 34.496094 L 38 34.496094 L 38 33.871094 L 38 32.597656 C 38 31.584656 37.770422 30.842281 37.357422 30.363281 C 36.804422 29.714281 36.019297 29.371094 35.029297 29.371094 z M 22 29.619141 L 22 36.371094 C 21.559 36.963094 20.924391 37.400391 20.525391 37.400391 C 20.260391 37.400391 20.048 37.289094 20 36.996094 L 20 36.246094 L 20 29.621094 L 18 29.621094 L 18 36.792969 C 18 37.517969 18.095469 38.010172 18.230469 38.326172 C 18.452469 38.846172 18.897109 39.132813 19.537109 39.132812 C 20.266109 39.132812 21.211 38.606141 22 37.744141 L 22 38.994141 L 24 38.994141 L 24 29.619141 L 22 29.619141 z M 35 30.939453 C 35.552 30.939453 36 31.347609 36 31.849609 L 36 32.996094 L 34 32.996094 L 34 31.849609 C 34 31.347609 34.448 30.939453 35 30.939453 z M 28.220703 31.117188 C 28.765703 31.117188 29 31.452094 29 32.496094 L 29 35.996094 C 29 37.040094 28.765703 37.400391 28.220703 37.400391 C 27.909703 37.400391 27.316 37.187094 27 36.871094 L 27 31.746094 C 27.316 31.434094 27.909703 31.117187 28.220703 31.117188 z"/>
<circle fill="#43A047" cx="38" cy="44" r="10"/>
<g>
	<rect x="36" y="38" fill="#FFFFFF" width="4" height="12"/>
	<rect x="32" y="42" fill="#FFFFFF" width="12" height="4"/>
</g>
</svg>
